<svg width="62" height="62" viewBox="0 0 62 62" fill="none" xmlns="http://www.w3.org/2000/svg">
<path d="M22 23L25 19H37L40 23M22 23V37C22 37.5304 22.2107 38.0391 22.5858 38.4142C22.9609 38.7893 23.4696 39 24 39H38C38.5304 39 39.0391 38.7893 39.4142 38.4142C39.7893 38.0391 40 37.5304 40 37V23M22 23H40M35 27C35 28.0609 34.5786 29.0783 33.8284 29.8284C33.0783 30.5786 32.0609 31 31 31C29.9391 31 28.9217 30.5786 28.1716 29.8284C27.4214 29.0783 27 28.0609 27 27M6 61H56C58.7614 61 61 58.7614 61 56V6C61 3.23858 58.7614 1 56 1H6C3.23858 1 1 3.23858 1 6V56C1 58.7614 3.23858 61 6 61Z" stroke="#219653" stroke-width="2" stroke-linecap="round" stroke-linejoin="round"/>
</svg>
